<svg xmlns="http://www.w3.org/2000/svg" xmlns:xlink="http://www.w3.org/1999/xlink" width="500" zoomAndPan="magnify" viewBox="0 0 375 374.999991" height="500" preserveAspectRatio="xMidYMid meet" version="1.0"><defs><g/><clipPath id="1cf8ea6382"><path d="M 113.476562 157 L 261.226562 157 L 261.226562 243.972656 L 113.476562 243.972656 Z M 113.476562 157 " clip-rule="nonzero"/></clipPath><clipPath id="b52c2da799"><path d="M 193 60.222656 L 243 60.222656 L 243 193 L 193 193 Z M 193 60.222656 " clip-rule="nonzero"/></clipPath></defs><path fill="#ffffff" d="M 257.066406 226.757812 C 245.78125 174.417969 209.546875 189.914062 173.972656 178.691406 C 116.125 160.4375 149.164062 106.117188 178.125 75.210938 C 178.785156 78.292969 179.117188 79.839844 179.117188 79.839844 C 185.683594 68.539062 188.96875 62.890625 188.96875 62.890625 C 176.902344 67.40625 170.863281 69.675781 170.863281 69.675781 C 172.9375 70.855469 173.972656 71.449219 173.972656 71.449219 C 143.054688 97.003906 126.515625 121.789062 124.351562 145.785156 C 121.804688 174.0625 139.511719 189.039062 160.109375 195.09375 C 190.871094 204.128906 233.886719 192.042969 257.066406 226.765625 Z M 257.066406 226.757812 " fill-opacity="1" fill-rule="evenodd"/><g clip-path="url(#1cf8ea6382)"><path fill="#000000" d="M 261.539062 243.628906 C 235.210938 180.820312 160.066406 227.097656 125.914062 179.132812 C 122.96875 174.773438 120.589844 170.429688 118.765625 166.085938 C 121.433594 167.667969 122.769531 168.457031 122.769531 168.457031 C 118.070312 161.472656 115.726562 157.980469 115.726562 157.980469 C 114.230469 165.332031 113.484375 169.003906 113.484375 169.003906 C 115.132812 167.355469 115.960938 166.539062 115.960938 166.539062 C 124.378906 196.066406 139.667969 213.351562 161.8125 218.390625 C 190.949219 225.019531 242.195312 213.734375 261.546875 243.636719 Z M 261.539062 243.628906 " fill-opacity="1" fill-rule="evenodd"/></g><g clip-path="url(#b52c2da799)"><path fill="#000000" d="M 242.785156 146.078125 L 242.785156 192.007812 C 240.464844 190.125 237.875 188.457031 234.972656 187.039062 C 234.234375 186.683594 233.496094 186.34375 232.742188 186.023438 L 232.742188 136.574219 L 226.851562 142.394531 L 226.851562 183.929688 C 223.578125 182.964844 220.207031 182.261719 216.808594 181.714844 L 216.808594 145.628906 L 216.765625 145.628906 L 216.765625 104.285156 L 203.300781 116.636719 L 203.300781 180.003906 C 199.9375 179.636719 196.59375 179.265625 193.257812 178.8125 L 193.257812 60.222656 L 216.765625 83.132812 L 216.765625 104.285156 L 226.84375 114.867188 L 226.851562 114.867188 L 226.851562 114.882812 L 232.742188 121.070312 L 232.742188 136.566406 Z M 242.785156 146.078125 " fill-opacity="1" fill-rule="evenodd"/></g><path fill="#000000" d="M 158.980469 146.078125 L 158.980469 167.398438 C 162.0625 169.5625 165.484375 171.332031 169.019531 172.792969 L 169.019531 136.566406 L 174.910156 142.386719 L 174.910156 174.921875 L 175.136719 174.992188 C 178.386719 176.015625 181.660156 176.804688 184.953125 177.457031 L 184.953125 145.609375 L 184.996094 145.609375 L 184.996094 104.292969 L 174.917969 114.875 L 174.910156 114.875 L 174.910156 114.890625 L 169.019531 121.078125 L 169.019531 136.574219 L 158.980469 146.089844 Z M 158.980469 146.078125 " fill-opacity="1" fill-rule="evenodd"/><g fill="#ffffff" fill-opacity="1"><g transform="translate(68.440259, 288.801803)"><g><path d="M 23.421875 -32.296875 L 15.40625 -32.296875 L 15.40625 0 L 9.09375 0 L 9.09375 -32.296875 L 1.09375 -32.296875 L 1.09375 -38.125 L 23.421875 -38.125 Z M 23.421875 -32.296875 "/></g></g></g><g fill="#ffffff" fill-opacity="1"><g transform="translate(88.803795, 288.801803)"><g><path d="M 12.640625 -32.296875 L 12.640625 -5.828125 L 17.09375 -5.828125 L 17.09375 0 L 1.796875 0 L 1.796875 -5.828125 L 6.265625 -5.828125 L 6.265625 -32.296875 L 2.015625 -32.296875 L 2.015625 -38.125 L 16.875 -38.125 L 16.875 -32.296875 Z M 12.640625 -32.296875 "/></g></g></g><g fill="#ffffff" fill-opacity="1"><g transform="translate(103.831253, 288.801803)"><g><path d="M 45.578125 0 L 39.203125 0 L 39.203125 -23.421875 L 28.265625 0 L 22.265625 0 L 10.625 -23.90625 L 10.625 0 L 4.25 0 L 4.25 -38.171875 L 10.734375 -38.171875 L 25.21875 -8.5 L 39.09375 -38.171875 L 45.578125 -38.171875 Z M 45.578125 0 "/></g></g></g><g fill="#ffffff" fill-opacity="1"><g transform="translate(149.677257, 288.801803)"><g><path d="M 23.3125 -19 C 25.125 -18.632812 26.5 -18.015625 27.4375 -17.140625 C 28.382812 -16.273438 29.054688 -15.367188 29.453125 -14.421875 C 29.859375 -13.484375 30.085938 -12.664062 30.140625 -11.96875 C 30.191406 -11.28125 30.21875 -10.9375 30.21875 -10.9375 C 30.21875 -8.832031 29.851562 -7.109375 29.125 -5.765625 C 28.40625 -4.421875 27.472656 -3.359375 26.328125 -2.578125 C 25.179688 -1.804688 23.988281 -1.226562 22.75 -0.84375 C 21.519531 -0.457031 20.378906 -0.21875 19.328125 -0.125 C 18.273438 -0.0390625 17.492188 0 16.984375 0 L 4.296875 0 L 4.296875 -38.125 L 16.984375 -38.125 C 16.984375 -38.125 17.289062 -38.101562 17.90625 -38.0625 C 18.53125 -38.03125 19.320312 -37.929688 20.28125 -37.765625 C 21.25 -37.597656 22.265625 -37.304688 23.328125 -36.890625 C 24.398438 -36.472656 25.414062 -35.863281 26.375 -35.0625 C 27.34375 -34.269531 28.132812 -33.253906 28.75 -32.015625 C 29.363281 -30.785156 29.671875 -29.242188 29.671875 -27.390625 C 29.671875 -25.722656 29.367188 -24.316406 28.765625 -23.171875 C 28.171875 -22.023438 27.382812 -21.113281 26.40625 -20.4375 C 25.425781 -19.769531 24.394531 -19.289062 23.3125 -19 Z M 10.625 -22.21875 L 16.984375 -22.21875 C 16.984375 -22.21875 17.300781 -22.242188 17.9375 -22.296875 C 18.570312 -22.347656 19.304688 -22.519531 20.140625 -22.8125 C 20.984375 -23.101562 21.722656 -23.566406 22.359375 -24.203125 C 22.992188 -24.835938 23.3125 -25.753906 23.3125 -26.953125 C 23.3125 -28.222656 22.992188 -29.191406 22.359375 -29.859375 C 21.722656 -30.535156 20.984375 -31.007812 20.140625 -31.28125 C 19.304688 -31.550781 18.570312 -31.703125 17.9375 -31.734375 C 17.300781 -31.773438 16.984375 -31.796875 16.984375 -31.796875 L 10.625 -31.796875 Z M 16.984375 -6.3125 C 17.890625 -6.3125 18.867188 -6.421875 19.921875 -6.640625 C 20.984375 -6.859375 21.898438 -7.3125 22.671875 -8 C 23.453125 -8.695312 23.84375 -9.734375 23.84375 -11.109375 C 23.84375 -12.128906 23.613281 -12.945312 23.15625 -13.5625 C 22.707031 -14.175781 22.140625 -14.644531 21.453125 -14.96875 C 20.765625 -15.300781 20.070312 -15.53125 19.375 -15.65625 C 18.6875 -15.78125 18.113281 -15.84375 17.65625 -15.84375 C 17.207031 -15.84375 16.984375 -15.84375 16.984375 -15.84375 L 10.625 -15.84375 L 10.625 -6.3125 Z M 16.984375 -6.3125 "/></g></g></g><g fill="#ffffff" fill-opacity="1"><g transform="translate(178.480504, 288.801803)"><g><path d="M 36 -38.125 L 36 -15.296875 C 36 -15.191406 35.96875 -14.75 35.90625 -13.96875 C 35.851562 -13.1875 35.691406 -12.234375 35.421875 -11.109375 C 35.148438 -9.984375 34.707031 -8.800781 34.09375 -7.5625 C 32.78125 -4.945312 30.925781 -2.941406 28.53125 -1.546875 C 26.132812 -0.148438 23.335938 0.546875 20.140625 0.546875 C 16.953125 0.546875 14.160156 -0.148438 11.765625 -1.546875 C 9.367188 -2.941406 7.515625 -4.945312 6.203125 -7.5625 C 5.585938 -8.800781 5.144531 -9.984375 4.875 -11.109375 C 4.601562 -12.234375 4.4375 -13.1875 4.375 -13.96875 C 4.320312 -14.75 4.296875 -15.191406 4.296875 -15.296875 L 4.296875 -38.125 Z M 28.3125 -10.234375 C 28.75 -11.066406 29.066406 -11.863281 29.265625 -12.625 C 29.460938 -13.394531 29.578125 -14.039062 29.609375 -14.5625 C 29.648438 -15.09375 29.671875 -15.359375 29.671875 -15.359375 L 29.671875 -31.75 L 10.625 -31.75 L 10.625 -15.296875 C 10.625 -15.296875 10.648438 -15.039062 10.703125 -14.53125 C 10.753906 -14.03125 10.867188 -13.394531 11.046875 -12.625 C 11.234375 -11.863281 11.546875 -11.066406 11.984375 -10.234375 C 13.546875 -7.296875 16.265625 -5.828125 20.140625 -5.828125 C 24.097656 -5.828125 26.820312 -7.296875 28.3125 -10.234375 Z M 28.3125 -10.234375 "/></g></g></g><g fill="#ffffff" fill-opacity="1"><g transform="translate(214.743359, 288.801803)"><g><path d="M 18.515625 -18.734375 L 34.359375 0 L 26.03125 0 L 14.265625 -14.484375 L 10.671875 -10.453125 L 10.671875 0 L 4.296875 0 L 4.296875 -38.125 L 10.671875 -38.125 L 10.671875 -18.890625 L 26.296875 -38.125 L 34.25 -38.125 Z M 18.515625 -18.734375 "/></g></g></g><g fill="#ffffff" fill-opacity="1"><g transform="translate(245.887945, 288.801803)"><g><path d="M 23.421875 -32.296875 L 15.40625 -32.296875 L 15.40625 0 L 9.09375 0 L 9.09375 -32.296875 L 1.09375 -32.296875 L 1.09375 -38.125 L 23.421875 -38.125 Z M 23.421875 -32.296875 "/></g></g></g><g fill="#ffffff" fill-opacity="1"><g transform="translate(266.251474, 288.801803)"><g><path d="M 36 -38.125 L 36 -15.296875 C 36 -15.191406 35.96875 -14.75 35.90625 -13.96875 C 35.851562 -13.1875 35.691406 -12.234375 35.421875 -11.109375 C 35.148438 -9.984375 34.707031 -8.800781 34.09375 -7.5625 C 32.78125 -4.945312 30.925781 -2.941406 28.53125 -1.546875 C 26.132812 -0.148438 23.335938 0.546875 20.140625 0.546875 C 16.953125 0.546875 14.160156 -0.148438 11.765625 -1.546875 C 9.367188 -2.941406 7.515625 -4.945312 6.203125 -7.5625 C 5.585938 -8.800781 5.144531 -9.984375 4.875 -11.109375 C 4.601562 -12.234375 4.4375 -13.1875 4.375 -13.96875 C 4.320312 -14.75 4.296875 -15.191406 4.296875 -15.296875 L 4.296875 -38.125 Z M 28.3125 -10.234375 C 28.75 -11.066406 29.066406 -11.863281 29.265625 -12.625 C 29.460938 -13.394531 29.578125 -14.039062 29.609375 -14.5625 C 29.648438 -15.09375 29.671875 -15.359375 29.671875 -15.359375 L 29.671875 -31.75 L 10.625 -31.75 L 10.625 -15.296875 C 10.625 -15.296875 10.648438 -15.039062 10.703125 -14.53125 C 10.753906 -14.03125 10.867188 -13.394531 11.046875 -12.625 C 11.234375 -11.863281 11.546875 -11.066406 11.984375 -10.234375 C 13.546875 -7.296875 16.265625 -5.828125 20.140625 -5.828125 C 24.097656 -5.828125 26.820312 -7.296875 28.3125 -10.234375 Z M 28.3125 -10.234375 "/></g></g></g><g fill="#ffffff" fill-opacity="1"><g transform="translate(92.324107, 312.106411)"><g><path d="M 6.421875 -7.265625 C 6.597656 -7.171875 6.6875 -7.023438 6.6875 -6.828125 C 6.6875 -6.691406 6.640625 -6.570312 6.546875 -6.46875 C 6.460938 -6.34375 6.34375 -6.28125 6.1875 -6.28125 C 6.082031 -6.28125 5.984375 -6.304688 5.890625 -6.359375 C 5.429688 -6.617188 4.9375 -6.75 4.40625 -6.75 C 3.851562 -6.75 3.363281 -6.625 2.9375 -6.375 C 2.519531 -6.132812 2.191406 -5.796875 1.953125 -5.359375 C 1.722656 -4.921875 1.609375 -4.421875 1.609375 -3.859375 C 1.609375 -3.253906 1.726562 -2.726562 1.96875 -2.28125 C 2.21875 -1.84375 2.554688 -1.503906 2.984375 -1.265625 C 3.410156 -1.035156 3.882812 -0.921875 4.40625 -0.921875 C 4.957031 -0.921875 5.453125 -1.054688 5.890625 -1.328125 C 5.972656 -1.367188 6.066406 -1.390625 6.171875 -1.390625 C 6.335938 -1.390625 6.46875 -1.328125 6.5625 -1.203125 C 6.65625 -1.085938 6.703125 -0.96875 6.703125 -0.84375 C 6.703125 -0.757812 6.675781 -0.675781 6.625 -0.59375 C 6.570312 -0.519531 6.507812 -0.460938 6.4375 -0.421875 C 6.144531 -0.253906 5.820312 -0.125 5.46875 -0.03125 C 5.113281 0.0625 4.757812 0.109375 4.40625 0.109375 C 3.695312 0.109375 3.039062 -0.046875 2.4375 -0.359375 C 1.84375 -0.679688 1.363281 -1.140625 1 -1.734375 C 0.644531 -2.335938 0.46875 -3.046875 0.46875 -3.859375 C 0.46875 -4.597656 0.640625 -5.265625 0.984375 -5.859375 C 1.328125 -6.460938 1.796875 -6.9375 2.390625 -7.28125 C 2.992188 -7.625 3.664062 -7.796875 4.40625 -7.796875 C 5.125 -7.796875 5.796875 -7.617188 6.421875 -7.265625 Z M 6.421875 -7.265625 "/></g></g></g><g fill="#ffffff" fill-opacity="1"><g transform="translate(102.517071, 312.106411)"><g><path d="M 6.46875 -7.71875 C 6.632812 -7.71875 6.769531 -7.664062 6.875 -7.5625 C 6.976562 -7.46875 7.03125 -7.34375 7.03125 -7.1875 L 7.03125 -0.546875 C 7.019531 -0.390625 6.960938 -0.257812 6.859375 -0.15625 C 6.753906 -0.0507812 6.625 0 6.46875 0 C 6.320312 0 6.191406 -0.0507812 6.078125 -0.15625 C 5.972656 -0.257812 5.921875 -0.390625 5.921875 -0.546875 L 5.921875 -3.390625 L 2 -3.390625 L 2 -0.546875 C 2 -0.390625 1.941406 -0.257812 1.828125 -0.15625 C 1.722656 -0.0507812 1.597656 0 1.453125 0 C 1.296875 0 1.164062 -0.0507812 1.0625 -0.15625 C 0.96875 -0.257812 0.921875 -0.390625 0.921875 -0.546875 L 0.921875 -7.1875 C 0.921875 -7.332031 0.96875 -7.457031 1.0625 -7.5625 C 1.164062 -7.664062 1.300781 -7.71875 1.46875 -7.71875 C 1.613281 -7.71875 1.738281 -7.664062 1.84375 -7.5625 C 1.945312 -7.457031 2 -7.332031 2 -7.1875 L 2 -4.40625 L 5.921875 -4.40625 L 5.921875 -7.1875 C 5.921875 -7.332031 5.972656 -7.457031 6.078125 -7.5625 C 6.191406 -7.664062 6.320312 -7.71875 6.46875 -7.71875 Z M 6.46875 -7.71875 "/></g></g></g><g fill="#ffffff" fill-opacity="1"><g transform="translate(113.603205, 312.106411)"><g><path d="M 6.84375 -0.6875 C 6.875 -0.613281 6.890625 -0.539062 6.890625 -0.46875 C 6.890625 -0.320312 6.835938 -0.203125 6.734375 -0.109375 C 6.628906 -0.015625 6.515625 0.03125 6.390625 0.03125 C 6.285156 0.03125 6.191406 0 6.109375 -0.0625 C 6.023438 -0.125 5.957031 -0.207031 5.90625 -0.3125 L 5.21875 -1.9375 L 1.8125 -1.9375 L 1.140625 -0.3125 C 1.097656 -0.195312 1.035156 -0.109375 0.953125 -0.046875 C 0.867188 0.00390625 0.773438 0.03125 0.671875 0.03125 C 0.515625 0.03125 0.394531 -0.00390625 0.3125 -0.078125 C 0.238281 -0.160156 0.203125 -0.273438 0.203125 -0.421875 C 0.203125 -0.453125 0.207031 -0.507812 0.21875 -0.59375 L 3.03125 -7.40625 C 3.082031 -7.53125 3.15625 -7.625 3.25 -7.6875 C 3.34375 -7.75 3.445312 -7.769531 3.5625 -7.75 C 3.675781 -7.75 3.773438 -7.71875 3.859375 -7.65625 C 3.953125 -7.601562 4.015625 -7.519531 4.046875 -7.40625 Z M 2.234375 -2.953125 L 4.796875 -2.953125 L 3.515625 -6.03125 Z M 2.234375 -2.953125 "/></g></g></g><g fill="#ffffff" fill-opacity="1"><g transform="translate(123.840277, 312.106411)"><g><path d="M 7.625 -7.734375 C 7.769531 -7.722656 7.894531 -7.664062 8 -7.5625 C 8.101562 -7.46875 8.15625 -7.347656 8.15625 -7.203125 L 8.15625 -0.53125 C 8.15625 -0.382812 8.101562 -0.257812 8 -0.15625 C 7.90625 -0.0507812 7.773438 0 7.609375 0 C 7.453125 0 7.320312 -0.046875 7.21875 -0.140625 C 7.113281 -0.242188 7.0625 -0.375 7.0625 -0.53125 L 7.0625 -5.640625 L 4.921875 -2.390625 C 4.867188 -2.328125 4.800781 -2.269531 4.71875 -2.21875 C 4.644531 -2.175781 4.566406 -2.160156 4.484375 -2.171875 C 4.410156 -2.160156 4.332031 -2.175781 4.25 -2.21875 C 4.175781 -2.269531 4.117188 -2.328125 4.078125 -2.390625 L 1.921875 -5.734375 L 1.921875 -0.53125 C 1.921875 -0.375 1.875 -0.242188 1.78125 -0.140625 C 1.6875 -0.046875 1.5625 0 1.40625 0 C 1.257812 0 1.140625 -0.046875 1.046875 -0.140625 C 0.960938 -0.242188 0.921875 -0.375 0.921875 -0.53125 L 0.921875 -7.203125 C 0.921875 -7.335938 0.96875 -7.457031 1.0625 -7.5625 C 1.164062 -7.675781 1.296875 -7.734375 1.453125 -7.734375 C 1.546875 -7.734375 1.632812 -7.707031 1.71875 -7.65625 C 1.800781 -7.613281 1.867188 -7.554688 1.921875 -7.484375 L 4.53125 -3.53125 L 7.1875 -7.484375 C 7.300781 -7.648438 7.445312 -7.734375 7.625 -7.734375 Z M 7.625 -7.734375 "/></g></g></g><g fill="#ffffff" fill-opacity="1"><g transform="translate(136.062162, 312.106411)"><g><path d="M 5.34375 -4.21875 C 5.75 -4.070312 6.082031 -3.835938 6.34375 -3.515625 C 6.601562 -3.203125 6.734375 -2.785156 6.734375 -2.265625 C 6.734375 -1.453125 6.492188 -0.867188 6.015625 -0.515625 C 5.546875 -0.171875 4.96875 0 4.28125 0 L 1.4375 0 C 1.289062 0 1.164062 -0.0507812 1.0625 -0.15625 C 0.96875 -0.257812 0.921875 -0.382812 0.921875 -0.53125 L 0.921875 -7.1875 C 0.921875 -7.332031 0.96875 -7.457031 1.0625 -7.5625 C 1.164062 -7.664062 1.289062 -7.71875 1.4375 -7.71875 L 4.28125 -7.71875 C 4.945312 -7.71875 5.453125 -7.550781 5.796875 -7.21875 C 6.148438 -6.894531 6.328125 -6.421875 6.328125 -5.796875 C 6.328125 -5.441406 6.242188 -5.125 6.078125 -4.84375 C 5.910156 -4.570312 5.664062 -4.363281 5.34375 -4.21875 Z M 5.203125 -5.625 C 5.203125 -5.96875 5.109375 -6.226562 4.921875 -6.40625 C 4.734375 -6.59375 4.46875 -6.6875 4.125 -6.6875 L 2.046875 -6.6875 L 2.046875 -4.53125 L 4.140625 -4.53125 C 4.441406 -4.539062 4.691406 -4.640625 4.890625 -4.828125 C 5.097656 -5.015625 5.203125 -5.28125 5.203125 -5.625 Z M 4.265625 -1.015625 C 4.671875 -1.015625 4.992188 -1.117188 5.234375 -1.328125 C 5.484375 -1.535156 5.609375 -1.847656 5.609375 -2.265625 C 5.609375 -3.085938 5.144531 -3.5 4.21875 -3.5 L 2.046875 -3.5 L 2.046875 -1.015625 Z M 4.265625 -1.015625 "/></g></g></g><g fill="#ffffff" fill-opacity="1"><g transform="translate(146.420529, 312.106411)"><g><path d="M 5.28125 -1.015625 C 5.4375 -1.015625 5.5625 -0.960938 5.65625 -0.859375 C 5.757812 -0.753906 5.8125 -0.632812 5.8125 -0.5 C 5.8125 -0.351562 5.757812 -0.234375 5.65625 -0.140625 C 5.5625 -0.046875 5.4375 0 5.28125 0 L 1.4375 0 C 1.289062 0 1.164062 -0.0507812 1.0625 -0.15625 C 0.96875 -0.257812 0.921875 -0.382812 0.921875 -0.53125 L 0.921875 -7.1875 C 0.921875 -7.332031 0.96875 -7.457031 1.0625 -7.5625 C 1.164062 -7.664062 1.289062 -7.71875 1.4375 -7.71875 L 5.28125 -7.71875 C 5.4375 -7.71875 5.5625 -7.671875 5.65625 -7.578125 C 5.757812 -7.484375 5.8125 -7.359375 5.8125 -7.203125 C 5.8125 -7.054688 5.757812 -6.9375 5.65625 -6.84375 C 5.5625 -6.75 5.4375 -6.703125 5.28125 -6.703125 L 2 -6.703125 L 2 -4.453125 L 4.78125 -4.453125 C 4.9375 -4.453125 5.0625 -4.40625 5.15625 -4.3125 C 5.257812 -4.21875 5.3125 -4.097656 5.3125 -3.953125 C 5.3125 -3.796875 5.257812 -3.671875 5.15625 -3.578125 C 5.0625 -3.492188 4.9375 -3.453125 4.78125 -3.453125 L 2 -3.453125 L 2 -1.015625 Z M 5.28125 -1.015625 "/></g></g></g><g fill="#ffffff" fill-opacity="1"><g transform="translate(155.863674, 312.106411)"><g><path d="M 6.796875 -0.875 C 6.867188 -0.832031 6.925781 -0.769531 6.96875 -0.6875 C 7.007812 -0.613281 7.03125 -0.535156 7.03125 -0.453125 C 7.03125 -0.296875 6.976562 -0.179688 6.875 -0.109375 C 6.78125 -0.0351562 6.664062 0 6.53125 0 C 6.394531 0 6.273438 -0.03125 6.171875 -0.09375 C 5.953125 -0.21875 5.769531 -0.414062 5.625 -0.6875 C 5.488281 -0.96875 5.421875 -1.382812 5.421875 -1.9375 C 5.421875 -2.300781 5.3125 -2.570312 5.09375 -2.75 C 4.875 -2.925781 4.585938 -3.015625 4.234375 -3.015625 L 2 -3.015625 L 2 -0.53125 C 2 -0.375 1.957031 -0.242188 1.875 -0.140625 C 1.789062 -0.046875 1.675781 0 1.53125 0 C 1.363281 0 1.21875 -0.0507812 1.09375 -0.15625 C 0.976562 -0.257812 0.921875 -0.382812 0.921875 -0.53125 L 0.921875 -7.1875 C 0.921875 -7.332031 0.96875 -7.457031 1.0625 -7.5625 C 1.164062 -7.664062 1.289062 -7.71875 1.4375 -7.71875 L 4.546875 -7.71875 C 4.941406 -7.71875 5.304688 -7.617188 5.640625 -7.421875 C 5.972656 -7.234375 6.238281 -6.96875 6.4375 -6.625 C 6.632812 -6.28125 6.734375 -5.894531 6.734375 -5.46875 C 6.734375 -5.0625 6.617188 -4.675781 6.390625 -4.3125 C 6.171875 -3.957031 5.890625 -3.691406 5.546875 -3.515625 C 5.816406 -3.378906 6.03125 -3.1875 6.1875 -2.9375 C 6.351562 -2.6875 6.441406 -2.394531 6.453125 -2.0625 C 6.484375 -1.644531 6.515625 -1.359375 6.546875 -1.203125 C 6.585938 -1.054688 6.671875 -0.945312 6.796875 -0.875 Z M 4.515625 -3.921875 C 4.703125 -3.941406 4.878906 -4.015625 5.046875 -4.140625 C 5.210938 -4.273438 5.347656 -4.453125 5.453125 -4.671875 C 5.554688 -4.898438 5.609375 -5.15625 5.609375 -5.4375 C 5.609375 -5.789062 5.5 -6.085938 5.28125 -6.328125 C 5.0625 -6.578125 4.796875 -6.703125 4.484375 -6.703125 L 2 -6.703125 L 2 -3.921875 Z M 4.515625 -3.921875 "/></g></g></g><g fill="#ffffff" fill-opacity="1"><g transform="translate(166.519768, 312.106411)"><g/></g></g><g fill="#ffffff" fill-opacity="1"><g transform="translate(172.73209, 312.106411)"><g><path d="M 7.9375 -3.859375 C 7.9375 -3.117188 7.773438 -2.445312 7.453125 -1.84375 C 7.128906 -1.238281 6.679688 -0.757812 6.109375 -0.40625 C 5.546875 -0.0625 4.910156 0.109375 4.203125 0.109375 C 3.492188 0.109375 2.851562 -0.0625 2.28125 -0.40625 C 1.71875 -0.757812 1.273438 -1.238281 0.953125 -1.84375 C 0.628906 -2.445312 0.46875 -3.117188 0.46875 -3.859375 C 0.46875 -4.597656 0.628906 -5.269531 0.953125 -5.875 C 1.273438 -6.476562 1.71875 -6.953125 2.28125 -7.296875 C 2.851562 -7.648438 3.492188 -7.828125 4.203125 -7.828125 C 4.910156 -7.828125 5.546875 -7.648438 6.109375 -7.296875 C 6.679688 -6.953125 7.128906 -6.476562 7.453125 -5.875 C 7.773438 -5.269531 7.9375 -4.597656 7.9375 -3.859375 Z M 6.796875 -3.859375 C 6.796875 -4.410156 6.6875 -4.90625 6.46875 -5.34375 C 6.25 -5.789062 5.941406 -6.140625 5.546875 -6.390625 C 5.148438 -6.648438 4.703125 -6.78125 4.203125 -6.78125 C 3.703125 -6.78125 3.253906 -6.65625 2.859375 -6.40625 C 2.460938 -6.15625 2.15625 -5.804688 1.9375 -5.359375 C 1.71875 -4.921875 1.609375 -4.421875 1.609375 -3.859375 C 1.609375 -3.304688 1.71875 -2.804688 1.9375 -2.359375 C 2.15625 -1.921875 2.460938 -1.570312 2.859375 -1.3125 C 3.253906 -1.0625 3.703125 -0.9375 4.203125 -0.9375 C 4.703125 -0.9375 5.148438 -1.0625 5.546875 -1.3125 C 5.941406 -1.570312 6.25 -1.921875 6.46875 -2.359375 C 6.6875 -2.804688 6.796875 -3.304688 6.796875 -3.859375 Z M 6.796875 -3.859375 "/></g></g></g><g fill="#ffffff" fill-opacity="1"><g transform="translate(184.292363, 312.106411)"><g><path d="M 2 -6.703125 L 2 -4.421875 L 4.703125 -4.421875 C 4.859375 -4.421875 4.984375 -4.375 5.078125 -4.28125 C 5.179688 -4.1875 5.234375 -4.0625 5.234375 -3.90625 C 5.234375 -3.769531 5.179688 -3.65625 5.078125 -3.5625 C 4.984375 -3.46875 4.859375 -3.421875 4.703125 -3.421875 L 2 -3.421875 L 2 -0.53125 C 2 -0.382812 1.941406 -0.257812 1.828125 -0.15625 C 1.722656 -0.0507812 1.597656 0 1.453125 0 C 1.296875 0 1.164062 -0.0507812 1.0625 -0.15625 C 0.96875 -0.257812 0.921875 -0.382812 0.921875 -0.53125 L 0.921875 -7.1875 C 0.921875 -7.332031 0.96875 -7.457031 1.0625 -7.5625 C 1.164062 -7.664062 1.289062 -7.71875 1.4375 -7.71875 L 5.203125 -7.71875 C 5.359375 -7.71875 5.484375 -7.671875 5.578125 -7.578125 C 5.679688 -7.484375 5.734375 -7.359375 5.734375 -7.203125 C 5.734375 -7.066406 5.679688 -6.945312 5.578125 -6.84375 C 5.472656 -6.75 5.347656 -6.703125 5.203125 -6.703125 Z M 2 -6.703125 "/></g></g></g><g fill="#ffffff" fill-opacity="1"><g transform="translate(193.66935, 312.106411)"><g/></g></g><g fill="#ffffff" fill-opacity="1"><g transform="translate(199.881667, 312.106411)"><g><path d="M 6.421875 -7.265625 C 6.597656 -7.171875 6.6875 -7.023438 6.6875 -6.828125 C 6.6875 -6.691406 6.640625 -6.570312 6.546875 -6.46875 C 6.460938 -6.34375 6.34375 -6.28125 6.1875 -6.28125 C 6.082031 -6.28125 5.984375 -6.304688 5.890625 -6.359375 C 5.429688 -6.617188 4.9375 -6.75 4.40625 -6.75 C 3.851562 -6.75 3.363281 -6.625 2.9375 -6.375 C 2.519531 -6.132812 2.191406 -5.796875 1.953125 -5.359375 C 1.722656 -4.921875 1.609375 -4.421875 1.609375 -3.859375 C 1.609375 -3.253906 1.726562 -2.726562 1.96875 -2.28125 C 2.21875 -1.84375 2.554688 -1.503906 2.984375 -1.265625 C 3.410156 -1.035156 3.882812 -0.921875 4.40625 -0.921875 C 4.957031 -0.921875 5.453125 -1.054688 5.890625 -1.328125 C 5.972656 -1.367188 6.066406 -1.390625 6.171875 -1.390625 C 6.335938 -1.390625 6.46875 -1.328125 6.5625 -1.203125 C 6.65625 -1.085938 6.703125 -0.96875 6.703125 -0.84375 C 6.703125 -0.757812 6.675781 -0.675781 6.625 -0.59375 C 6.570312 -0.519531 6.507812 -0.460938 6.4375 -0.421875 C 6.144531 -0.253906 5.820312 -0.125 5.46875 -0.03125 C 5.113281 0.0625 4.757812 0.109375 4.40625 0.109375 C 3.695312 0.109375 3.039062 -0.046875 2.4375 -0.359375 C 1.84375 -0.679688 1.363281 -1.140625 1 -1.734375 C 0.644531 -2.335938 0.46875 -3.046875 0.46875 -3.859375 C 0.46875 -4.597656 0.640625 -5.265625 0.984375 -5.859375 C 1.328125 -6.460938 1.796875 -6.9375 2.390625 -7.28125 C 2.992188 -7.625 3.664062 -7.796875 4.40625 -7.796875 C 5.125 -7.796875 5.796875 -7.617188 6.421875 -7.265625 Z M 6.421875 -7.265625 "/></g></g></g><g fill="#ffffff" fill-opacity="1"><g transform="translate(210.074626, 312.106411)"><g><path d="M 7.9375 -3.859375 C 7.9375 -3.117188 7.773438 -2.445312 7.453125 -1.84375 C 7.128906 -1.238281 6.679688 -0.757812 6.109375 -0.40625 C 5.546875 -0.0625 4.910156 0.109375 4.203125 0.109375 C 3.492188 0.109375 2.851562 -0.0625 2.28125 -0.40625 C 1.71875 -0.757812 1.273438 -1.238281 0.953125 -1.84375 C 0.628906 -2.445312 0.46875 -3.117188 0.46875 -3.859375 C 0.46875 -4.597656 0.628906 -5.269531 0.953125 -5.875 C 1.273438 -6.476562 1.71875 -6.953125 2.28125 -7.296875 C 2.851562 -7.648438 3.492188 -7.828125 4.203125 -7.828125 C 4.910156 -7.828125 5.546875 -7.648438 6.109375 -7.296875 C 6.679688 -6.953125 7.128906 -6.476562 7.453125 -5.875 C 7.773438 -5.269531 7.9375 -4.597656 7.9375 -3.859375 Z M 6.796875 -3.859375 C 6.796875 -4.410156 6.6875 -4.90625 6.46875 -5.34375 C 6.25 -5.789062 5.941406 -6.140625 5.546875 -6.390625 C 5.148438 -6.648438 4.703125 -6.78125 4.203125 -6.78125 C 3.703125 -6.78125 3.253906 -6.65625 2.859375 -6.40625 C 2.460938 -6.15625 2.15625 -5.804688 1.9375 -5.359375 C 1.71875 -4.921875 1.609375 -4.421875 1.609375 -3.859375 C 1.609375 -3.304688 1.71875 -2.804688 1.9375 -2.359375 C 2.15625 -1.921875 2.460938 -1.570312 2.859375 -1.3125 C 3.253906 -1.0625 3.703125 -0.9375 4.203125 -0.9375 C 4.703125 -0.9375 5.148438 -1.0625 5.546875 -1.3125 C 5.941406 -1.570312 6.25 -1.921875 6.46875 -2.359375 C 6.6875 -2.804688 6.796875 -3.304688 6.796875 -3.859375 Z M 6.796875 -3.859375 "/></g></g></g><g fill="#ffffff" fill-opacity="1"><g transform="translate(221.634893, 312.106411)"><g><path d="M 7.625 -7.734375 C 7.769531 -7.722656 7.894531 -7.664062 8 -7.5625 C 8.101562 -7.46875 8.15625 -7.347656 8.15625 -7.203125 L 8.15625 -0.53125 C 8.15625 -0.382812 8.101562 -0.257812 8 -0.15625 C 7.90625 -0.0507812 7.773438 0 7.609375 0 C 7.453125 0 7.320312 -0.046875 7.21875 -0.140625 C 7.113281 -0.242188 7.0625 -0.375 7.0625 -0.53125 L 7.0625 -5.640625 L 4.921875 -2.390625 C 4.867188 -2.328125 4.800781 -2.269531 4.71875 -2.21875 C 4.644531 -2.175781 4.566406 -2.160156 4.484375 -2.171875 C 4.410156 -2.160156 4.332031 -2.175781 4.25 -2.21875 C 4.175781 -2.269531 4.117188 -2.328125 4.078125 -2.390625 L 1.921875 -5.734375 L 1.921875 -0.53125 C 1.921875 -0.375 1.875 -0.242188 1.78125 -0.140625 C 1.6875 -0.046875 1.5625 0 1.40625 0 C 1.257812 0 1.140625 -0.046875 1.046875 -0.140625 C 0.960938 -0.242188 0.921875 -0.375 0.921875 -0.53125 L 0.921875 -7.203125 C 0.921875 -7.335938 0.96875 -7.457031 1.0625 -7.5625 C 1.164062 -7.675781 1.296875 -7.734375 1.453125 -7.734375 C 1.546875 -7.734375 1.632812 -7.707031 1.71875 -7.65625 C 1.800781 -7.613281 1.867188 -7.554688 1.921875 -7.484375 L 4.53125 -3.53125 L 7.1875 -7.484375 C 7.300781 -7.648438 7.445312 -7.734375 7.625 -7.734375 Z M 7.625 -7.734375 "/></g></g></g><g fill="#ffffff" fill-opacity="1"><g transform="translate(233.856772, 312.106411)"><g><path d="M 7.625 -7.734375 C 7.769531 -7.722656 7.894531 -7.664062 8 -7.5625 C 8.101562 -7.46875 8.15625 -7.347656 8.15625 -7.203125 L 8.15625 -0.53125 C 8.15625 -0.382812 8.101562 -0.257812 8 -0.15625 C 7.90625 -0.0507812 7.773438 0 7.609375 0 C 7.453125 0 7.320312 -0.046875 7.21875 -0.140625 C 7.113281 -0.242188 7.0625 -0.375 7.0625 -0.53125 L 7.0625 -5.640625 L 4.921875 -2.390625 C 4.867188 -2.328125 4.800781 -2.269531 4.71875 -2.21875 C 4.644531 -2.175781 4.566406 -2.160156 4.484375 -2.171875 C 4.410156 -2.160156 4.332031 -2.175781 4.25 -2.21875 C 4.175781 -2.269531 4.117188 -2.328125 4.078125 -2.390625 L 1.921875 -5.734375 L 1.921875 -0.53125 C 1.921875 -0.375 1.875 -0.242188 1.78125 -0.140625 C 1.6875 -0.046875 1.5625 0 1.40625 0 C 1.257812 0 1.140625 -0.046875 1.046875 -0.140625 C 0.960938 -0.242188 0.921875 -0.375 0.921875 -0.53125 L 0.921875 -7.203125 C 0.921875 -7.335938 0.96875 -7.457031 1.0625 -7.5625 C 1.164062 -7.675781 1.296875 -7.734375 1.453125 -7.734375 C 1.546875 -7.734375 1.632812 -7.707031 1.71875 -7.65625 C 1.800781 -7.613281 1.867188 -7.554688 1.921875 -7.484375 L 4.53125 -3.53125 L 7.1875 -7.484375 C 7.300781 -7.648438 7.445312 -7.734375 7.625 -7.734375 Z M 7.625 -7.734375 "/></g></g></g><g fill="#ffffff" fill-opacity="1"><g transform="translate(246.078662, 312.106411)"><g><path d="M 5.28125 -1.015625 C 5.4375 -1.015625 5.5625 -0.960938 5.65625 -0.859375 C 5.757812 -0.753906 5.8125 -0.632812 5.8125 -0.5 C 5.8125 -0.351562 5.757812 -0.234375 5.65625 -0.140625 C 5.5625 -0.046875 5.4375 0 5.28125 0 L 1.4375 0 C 1.289062 0 1.164062 -0.0507812 1.0625 -0.15625 C 0.96875 -0.257812 0.921875 -0.382812 0.921875 -0.53125 L 0.921875 -7.1875 C 0.921875 -7.332031 0.96875 -7.457031 1.0625 -7.5625 C 1.164062 -7.664062 1.289062 -7.71875 1.4375 -7.71875 L 5.28125 -7.71875 C 5.4375 -7.71875 5.5625 -7.671875 5.65625 -7.578125 C 5.757812 -7.484375 5.8125 -7.359375 5.8125 -7.203125 C 5.8125 -7.054688 5.757812 -6.9375 5.65625 -6.84375 C 5.5625 -6.75 5.4375 -6.703125 5.28125 -6.703125 L 2 -6.703125 L 2 -4.453125 L 4.78125 -4.453125 C 4.9375 -4.453125 5.0625 -4.40625 5.15625 -4.3125 C 5.257812 -4.21875 5.3125 -4.097656 5.3125 -3.953125 C 5.3125 -3.796875 5.257812 -3.671875 5.15625 -3.578125 C 5.0625 -3.492188 4.9375 -3.453125 4.78125 -3.453125 L 2 -3.453125 L 2 -1.015625 Z M 5.28125 -1.015625 "/></g></g></g><g fill="#ffffff" fill-opacity="1"><g transform="translate(255.521802, 312.106411)"><g><path d="M 6.796875 -0.875 C 6.867188 -0.832031 6.925781 -0.769531 6.96875 -0.6875 C 7.007812 -0.613281 7.03125 -0.535156 7.03125 -0.453125 C 7.03125 -0.296875 6.976562 -0.179688 6.875 -0.109375 C 6.78125 -0.0351562 6.664062 0 6.53125 0 C 6.394531 0 6.273438 -0.03125 6.171875 -0.09375 C 5.953125 -0.21875 5.769531 -0.414062 5.625 -0.6875 C 5.488281 -0.96875 5.421875 -1.382812 5.421875 -1.9375 C 5.421875 -2.300781 5.3125 -2.570312 5.09375 -2.75 C 4.875 -2.925781 4.585938 -3.015625 4.234375 -3.015625 L 2 -3.015625 L 2 -0.53125 C 2 -0.375 1.957031 -0.242188 1.875 -0.140625 C 1.789062 -0.046875 1.675781 0 1.53125 0 C 1.363281 0 1.21875 -0.0507812 1.09375 -0.15625 C 0.976562 -0.257812 0.921875 -0.382812 0.921875 -0.53125 L 0.921875 -7.1875 C 0.921875 -7.332031 0.96875 -7.457031 1.0625 -7.5625 C 1.164062 -7.664062 1.289062 -7.71875 1.4375 -7.71875 L 4.546875 -7.71875 C 4.941406 -7.71875 5.304688 -7.617188 5.640625 -7.421875 C 5.972656 -7.234375 6.238281 -6.96875 6.4375 -6.625 C 6.632812 -6.28125 6.734375 -5.894531 6.734375 -5.46875 C 6.734375 -5.0625 6.617188 -4.675781 6.390625 -4.3125 C 6.171875 -3.957031 5.890625 -3.691406 5.546875 -3.515625 C 5.816406 -3.378906 6.03125 -3.1875 6.1875 -2.9375 C 6.351562 -2.6875 6.441406 -2.394531 6.453125 -2.0625 C 6.484375 -1.644531 6.515625 -1.359375 6.546875 -1.203125 C 6.585938 -1.054688 6.671875 -0.945312 6.796875 -0.875 Z M 4.515625 -3.921875 C 4.703125 -3.941406 4.878906 -4.015625 5.046875 -4.140625 C 5.210938 -4.273438 5.347656 -4.453125 5.453125 -4.671875 C 5.554688 -4.898438 5.609375 -5.15625 5.609375 -5.4375 C 5.609375 -5.789062 5.5 -6.085938 5.28125 -6.328125 C 5.0625 -6.578125 4.796875 -6.703125 4.484375 -6.703125 L 2 -6.703125 L 2 -3.921875 Z M 4.515625 -3.921875 "/></g></g></g><g fill="#ffffff" fill-opacity="1"><g transform="translate(266.177889, 312.106411)"><g><path d="M 6.421875 -7.265625 C 6.597656 -7.171875 6.6875 -7.023438 6.6875 -6.828125 C 6.6875 -6.691406 6.640625 -6.570312 6.546875 -6.46875 C 6.460938 -6.34375 6.34375 -6.28125 6.1875 -6.28125 C 6.082031 -6.28125 5.984375 -6.304688 5.890625 -6.359375 C 5.429688 -6.617188 4.9375 -6.75 4.40625 -6.75 C 3.851562 -6.75 3.363281 -6.625 2.9375 -6.375 C 2.519531 -6.132812 2.191406 -5.796875 1.953125 -5.359375 C 1.722656 -4.921875 1.609375 -4.421875 1.609375 -3.859375 C 1.609375 -3.253906 1.726562 -2.726562 1.96875 -2.28125 C 2.21875 -1.84375 2.554688 -1.503906 2.984375 -1.265625 C 3.410156 -1.035156 3.882812 -0.921875 4.40625 -0.921875 C 4.957031 -0.921875 5.453125 -1.054688 5.890625 -1.328125 C 5.972656 -1.367188 6.066406 -1.390625 6.171875 -1.390625 C 6.335938 -1.390625 6.46875 -1.328125 6.5625 -1.203125 C 6.65625 -1.085938 6.703125 -0.96875 6.703125 -0.84375 C 6.703125 -0.757812 6.675781 -0.675781 6.625 -0.59375 C 6.570312 -0.519531 6.507812 -0.460938 6.4375 -0.421875 C 6.144531 -0.253906 5.820312 -0.125 5.46875 -0.03125 C 5.113281 0.0625 4.757812 0.109375 4.40625 0.109375 C 3.695312 0.109375 3.039062 -0.046875 2.4375 -0.359375 C 1.84375 -0.679688 1.363281 -1.140625 1 -1.734375 C 0.644531 -2.335938 0.46875 -3.046875 0.46875 -3.859375 C 0.46875 -4.597656 0.640625 -5.265625 0.984375 -5.859375 C 1.328125 -6.460938 1.796875 -6.9375 2.390625 -7.28125 C 2.992188 -7.625 3.664062 -7.796875 4.40625 -7.796875 C 5.125 -7.796875 5.796875 -7.617188 6.421875 -7.265625 Z M 6.421875 -7.265625 "/></g></g></g><g fill="#ffffff" fill-opacity="1"><g transform="translate(276.370848, 312.106411)"><g><path d="M 5.28125 -1.015625 C 5.4375 -1.015625 5.5625 -0.960938 5.65625 -0.859375 C 5.757812 -0.753906 5.8125 -0.632812 5.8125 -0.5 C 5.8125 -0.351562 5.757812 -0.234375 5.65625 -0.140625 C 5.5625 -0.046875 5.4375 0 5.28125 0 L 1.4375 0 C 1.289062 0 1.164062 -0.0507812 1.0625 -0.15625 C 0.96875 -0.257812 0.921875 -0.382812 0.921875 -0.53125 L 0.921875 -7.1875 C 0.921875 -7.332031 0.96875 -7.457031 1.0625 -7.5625 C 1.164062 -7.664062 1.289062 -7.71875 1.4375 -7.71875 L 5.28125 -7.71875 C 5.4375 -7.71875 5.5625 -7.671875 5.65625 -7.578125 C 5.757812 -7.484375 5.8125 -7.359375 5.8125 -7.203125 C 5.8125 -7.054688 5.757812 -6.9375 5.65625 -6.84375 C 5.5625 -6.75 5.4375 -6.703125 5.28125 -6.703125 L 2 -6.703125 L 2 -4.453125 L 4.78125 -4.453125 C 4.9375 -4.453125 5.0625 -4.40625 5.15625 -4.3125 C 5.257812 -4.21875 5.3125 -4.097656 5.3125 -3.953125 C 5.3125 -3.796875 5.257812 -3.671875 5.15625 -3.578125 C 5.0625 -3.492188 4.9375 -3.453125 4.78125 -3.453125 L 2 -3.453125 L 2 -1.015625 Z M 5.28125 -1.015625 "/></g></g></g></svg>